<svg version="1.2" xmlns="http://www.w3.org/2000/svg" viewBox="0 0 540 513" width="540" height="513">
	<title>streben-logo-white-svg</title>
	<style>
		.s0 { fill: #1890ff } 
		.s1 { fill: #0084ff } 
		.s2 { fill: #e4eaf1 } 
		.s3 { fill: #ffffff } 
	</style>
	<g id="Group_6">
		<g id="streben-logo">
			<g id="Group_5">
				<path id="Path_1" class="s0" d="m519.4 399.5c17.6 29.5 12.9 67.2-11.4 91.5-24.3 24.3-62 29-91.5 11.3-29.5-17.6-43.2-53-33.3-85.9 4.1-13.6-0.7-29.7-12.2-41.2l-16.6-16.6v0.1c-0.3 0-37.4-26.7-80.4-26.7-43.9 0-81.7 27.8-82 28.1l-15 15.1c-11.4 11.5-16.2 27.6-12.1 41.2 9.9 32.9-3.9 68.3-33.4 85.9-29.5 17.7-67.2 13-91.5-11.3-24.3-24.3-29-62-11.3-91.5 17.6-29.5 53-43.2 85.9-33.3 13.6 4.1 29.7-1.7 41.2-13.2l15.7-15.7c2.6-3.7 26.5-38.6 26.5-80.3 0-43.6-26.4-80.9-27-81.7l-15.2-16c-11.5-11.5-27.6-16.2-41.2-12.2-16 4.8-33.1 4.2-48.7-1.9-15.6-6-28.7-17.1-37.2-31.4-8.6-14.4-12.2-31.2-10.1-47.7 2.1-16.6 9.6-32 21.4-43.9 28.3-28.3 77.7-28.3 106 0 4.8 4.8 8.9 10.2 12.3 16.1 3.3 5.8 5.8 12.1 7.5 18.7 1.6 6.5 2.4 13.2 2.2 20-0.1 6.7-1.2 13.4-3.1 19.9-4.1 13.5 0.7 29.7 12.1 41.2l16.6 16.5c0.3 0 37.5 27.4 80.4 27.4 43.9 0 81.7-28.5 82.1-28.8l14.9-15.1c11.5-11.5 16.3-27.7 12.2-41.2-2-6.5-3-13.2-3.2-19.9-0.1-6.8 0.6-13.5 2.3-20 1.6-6.6 4.1-12.9 7.5-18.7 3.3-5.9 7.4-11.3 12.2-16.1 28.3-28.3 77.7-28.3 106 0 11.9 11.9 19.4 27.3 21.4 43.9 2.1 16.5-1.5 33.3-10 47.7-8.6 14.3-21.7 25.4-37.3 31.4-15.5 6-32.7 6.7-48.7 1.9-13.5-4-29.7 0.7-41.2 12.2l-15.6 16.6c-2.7 3.8-26.6 39.4-26.6 81.1 0 43.6 26.4 80.2 27 81l15.2 15c11.5 11.5 27.7 17.2 41.2 13.2 32.9-9.9 68.3 3.8 86 33.3z"/>
				<path id="Path_2" class="s1" d="m354.4 358.6c-0.3 0-37.4-26.6-80.4-26.6v-150c43.9 0 81.7-28.5 82.1-28.8l14.9-15.1c11.5-11.5 16.3-27.7 12.2-41.2-2-6.5-3-13.2-3.2-19.9-0.1-6.8 0.6-13.5 2.3-20 1.6-6.6 4.1-12.9 7.5-18.7 3.3-5.9 7.4-11.3 12.2-16.1 28.3-28.3 77.7-28.3 106 0 11.9 11.9 19.4 27.3 21.4 43.9 2.1 16.5-1.5 33.3-10 47.7-8.6 14.3-21.7 25.4-37.3 31.4-15.5 6-32.7 6.7-48.7 1.9-13.5-4-29.7 0.7-41.2 12.2l-15.6 16.6c-2.7 3.8-26.6 39.4-26.6 81.1 0 43.6 26.4 80.2 27 81l15.2 15c11.5 11.5 27.7 17.2 41.2 13.2 32.9-9.9 68.3 3.8 86 33.3 17.6 29.5 12.9 67.2-11.4 91.5-24.3 24.3-62 29-91.5 11.3-29.5-17.6-43.2-53-33.3-85.9 4.1-13.6-0.7-29.7-12.2-41.2l-16.6-16.6q0 0.1 0 0z"/>
				<path id="Path_3" class="s2" d="m252.8 257l21.2-21.2 21.2 21.2-21.2 21.2z"/>
				<path id="Path_4" class="s3" d="m295.2 257l-21.2 21.2v-42.4z"/>
				<g id="Group_1">
					<path id="Path_5" class="s3" d="m433.8 75.3l21.2-21.2 21.2 21.2-21.2 21.2z"/>
				</g>
				<g id="Group_2">
					<path id="Path_6" class="s3" d="m433.8 438l21.2-21.2 21.2 21.2-21.2 21.2z"/>
				</g>
				<g id="Nanotechnology_1_">
					<g id="Group_3">
						<path id="Path_7" class="s2" d="m71.8 75.3l21.2-21.2 21.2 21.2-21.2 21.2z"/>
					</g>
					<g id="Group_4">
						<path id="Path_8" class="s2" d="m71.8 438l21.2-21.2 21.2 21.2-21.2 21.2z"/>
					</g>
				</g>
			</g>
		</g>
	</g>
</svg>